# Blender 4.5.1 LTS
# www.blender.org
mtllib DTLarge.mtl
g Ceiling_Scene
v 25.000000 24.999996 4.929992
v 25.000000 19.999996 4.929992
v 25.000000 14.999997 4.929992
v 24.999998 9.999997 4.929993
v 24.999998 4.999997 4.929993
v 24.999998 -0.000002 4.929994
v 24.999998 -5.000003 4.929994
v 24.999998 -10.000001 4.929995
v 24.999996 -15.000001 4.929995
v 24.999996 -20.000004 4.929996
v 24.999996 -25.000000 4.929996
v 20.000000 24.999996 4.929993
v 20.000000 19.999996 4.929993
v 20.000000 14.999997 4.929994
v 19.999998 9.999997 4.929994
v 19.999998 4.999998 4.929995
v 19.999998 -0.000002 4.929995
v 19.999998 -5.000003 4.929995
v 19.999998 -10.000001 4.929996
v 19.999996 -15.000001 4.929996
v 19.999996 -20.000004 4.929996
v 19.999996 -25.000000 4.929997
v 15.000001 24.999996 4.929994
v 15.000001 19.999996 4.929994
v 15.000000 14.999998 4.929995
v 15.000000 9.999998 4.929995
v 14.999999 4.999998 4.929996
v 14.999999 -0.000001 4.929996
v 14.999999 -5.000002 4.929996
v 14.999998 -10.000000 4.929997
v 14.999998 -15.000000 4.929997
v 14.999997 -20.000004 4.929998
v 14.999997 -25.000000 4.929998
v 10.000001 24.999998 4.929995
v 10.000001 19.999998 4.929996
v 10.000000 14.999998 4.929996
v 10.000000 9.999998 4.929996
v 9.999999 4.999999 4.929996
v 9.999999 -0.000001 4.929997
v 9.999999 -5.000002 4.929997
v 9.999998 -10.000000 4.929998
v 9.999998 -15.000000 4.929998
v 9.999997 -20.000002 4.929999
v 9.999997 -24.999998 4.929999
v 5.000002 24.999998 4.929996
v 5.000002 19.999998 4.929996
v 5.000001 14.999999 4.929997
v 5.000001 9.999999 4.929997
v 5.000000 4.999999 4.929998
v 5.000000 -0.000000 4.929998
v 5.000000 -5.000001 4.929999
v 4.999999 -9.999999 4.929999
v 4.999999 -14.999999 4.929999
v 4.999998 -20.000002 4.930000
v 4.999998 -24.999998 4.930000
v 0.000003 24.999998 4.929997
v 0.000002 19.999998 4.929997
v 0.000002 14.999999 4.929998
v 0.000001 9.999999 4.929998
v 0.000001 5.000000 4.929999
v 0.000000 0.000000 4.929999
v -0.000000 -5.000001 4.930000
v -0.000001 -9.999999 4.930000
v -0.000001 -14.999999 4.930001
v -0.000001 -20.000002 4.930001
v -0.000002 -24.999998 4.930002
v -4.999998 24.999998 4.929998
v -4.999999 19.999998 4.929999
v -4.999999 14.999999 4.929999
v -5.000000 9.999999 4.930000
v -5.000000 5.000000 4.930000
v -5.000000 0.000000 4.930000
v -5.000001 -5.000000 4.930001
v -5.000001 -9.999999 4.930001
v -5.000002 -14.999999 4.930002
v -5.000002 -20.000002 4.930002
v -5.000003 -24.999998 4.930003
v -9.999997 24.999998 4.929999
v -9.999997 19.999998 4.930000
v -9.999998 15.000000 4.930000
v -9.999998 10.000000 4.930001
v -9.999999 5.000000 4.930001
v -9.999999 0.000001 4.930002
v -9.999999 -5.000000 4.930002
v -10.000000 -9.999998 4.930003
v -10.000000 -14.999998 4.930003
v -10.000001 -20.000002 4.930003
v -10.000001 -24.999998 4.930004
v -14.999997 25.000000 4.930001
v -14.999997 20.000000 4.930001
v -14.999998 15.000000 4.930001
v -14.999998 10.000000 4.930002
v -14.999999 5.000001 4.930002
v -14.999999 0.000001 4.930003
v -14.999999 -5.000000 4.930003
v -15.000000 -9.999998 4.930004
v -15.000000 -14.999998 4.930004
v -15.000001 -20.000000 4.930005
v -15.000001 -24.999996 4.930005
v -20.000000 25.000000 4.930002
v -20.000000 20.000000 4.930002
v -20.000000 15.000001 4.930003
v -20.000002 10.000001 4.930003
v -20.000002 5.000001 4.930004
v -20.000002 0.000002 4.930004
v -20.000002 -4.999999 4.930004
v -20.000002 -9.999997 4.930005
v -20.000004 -14.999997 4.930005
v -20.000004 -20.000000 4.930006
v -20.000004 -24.999996 4.930006
v -24.999996 25.000000 4.930003
v -24.999996 20.000000 4.930003
v -24.999996 15.000001 4.930004
v -24.999998 10.000001 4.930004
v -24.999998 5.000002 4.930005
v -24.999998 0.000002 4.930005
v -24.999998 -4.999999 4.930006
v -24.999998 -9.999997 4.930006
v -25.000000 -14.999997 4.930007
v -25.000000 -20.000000 4.930007
v -25.000000 -24.999996 4.930007
vn -0.0000 -0.0000 -1.0000
vt 0.900000 0.000000
vt 1.000000 0.000000
vt 1.000000 0.100000
vt 0.900000 0.100000
vt 0.800000 0.000000
vt 1.000000 0.200000
vt 0.800000 0.100000
vt 0.700000 0.000000
vt 0.900000 0.200000
vt 1.000000 0.300000
vt 0.700000 0.100000
vt 0.600000 0.000000
vt 0.800000 0.200000
vt 0.900000 0.300000
vt 1.000000 0.400000
vt 0.600000 0.100000
vt 0.500000 0.000000
vt 0.700000 0.200000
vt 0.800000 0.300000
vt 0.900000 0.400000
vt 1.000000 0.500000
vt 0.500000 0.100000
vt 0.400000 0.000000
vt 0.600000 0.200000
vt 0.700000 0.300000
vt 0.800000 0.400000
vt 0.900000 0.500000
vt 1.000000 0.600000
vt 0.400000 0.100000
vt 0.300000 0.000000
vt 0.500000 0.200000
vt 0.600000 0.300000
vt 0.700000 0.400000
vt 0.800000 0.500000
vt 0.900000 0.600000
vt 1.000000 0.700000
vt 0.300000 0.100000
vt 0.200000 0.000000
vt 0.400000 0.200000
vt 0.500000 0.300000
vt 0.600000 0.400000
vt 0.700000 0.500000
vt 0.800000 0.600000
vt 0.900000 0.700000
vt 1.000000 0.800000
vt 0.900000 0.800000
vt 1.000000 0.900000
vt 0.800000 0.700000
vt 0.700000 0.600000
vt 0.600000 0.500000
vt 0.500000 0.400000
vt 0.900000 0.900000
vt 1.000000 1.000000
vt 0.900000 1.000000
vt 0.800000 0.800000
vt 0.800000 0.900000
vt 0.800000 1.000000
vt 0.700000 0.700000
vt 0.600000 0.600000
vt 0.700000 0.800000
vt 0.700000 0.900000
vt 0.700000 1.000000
vt 0.600000 0.700000
vt 0.500000 0.500000
vt 0.600000 0.800000
vt 0.600000 0.900000
vt 0.600000 1.000000
vt 0.500000 0.600000
vt 0.500000 0.700000
vt 0.500000 0.800000
vt 0.500000 0.900000
vt 0.500000 1.000000
vt 0.400000 0.900000
vt 0.400000 1.000000
vt 0.400000 0.800000
vt 0.400000 0.700000
vt 0.400000 0.600000
vt 0.400000 0.500000
vt 0.300000 0.900000
vt 0.300000 1.000000
vt 0.300000 0.800000
vt 0.300000 0.700000
vt 0.300000 0.600000
vt 0.200000 0.900000
vt 0.200000 1.000000
vt 0.200000 0.800000
vt 0.200000 0.700000
vt 0.100000 0.900000
vt 0.100000 1.000000
vt 0.100000 0.800000
vt 0.000000 0.900000
vt 0.000000 1.000000
vt 0.000000 0.800000
vt 0.000000 0.700000
vt 0.100000 0.700000
vt 0.000000 0.600000
vt 0.100000 0.600000
vt 0.000000 0.500000
vt 0.200000 0.600000
vt 0.100000 0.500000
vt 0.000000 0.400000
vt 0.200000 0.500000
vt 0.100000 0.400000
vt 0.000000 0.300000
vt 0.300000 0.500000
vt 0.100000 0.300000
vt 0.000000 0.200000
vt 0.200000 0.400000
vt 0.300000 0.400000
vt 0.100000 0.200000
vt 0.000000 0.100000
vt 0.200000 0.300000
vt 0.400000 0.400000
vt 0.100000 0.100000
vt 0.000000 0.000000
vt 0.100000 0.000000
vt 0.200000 0.200000
vt 0.300000 0.300000
vt 0.400000 0.300000
vt 0.200000 0.100000
vt 0.300000 0.200000
s 1
usemtl Concrete_pattern_05
f 10/1/1 11/2/1 22/3/1
f 10/1/1 22/3/1 21/4/1
f 9/5/1 10/1/1 21/4/1
f 21/4/1 22/3/1 33/6/1
f 9/5/1 21/4/1 20/7/1
f 8/8/1 9/5/1 20/7/1
f 21/4/1 33/6/1 32/9/1
f 20/7/1 21/4/1 32/9/1
f 32/9/1 33/6/1 44/10/1
f 8/8/1 20/7/1 19/11/1
f 7/12/1 8/8/1 19/11/1
f 20/7/1 32/9/1 31/13/1
f 19/11/1 20/7/1 31/13/1
f 32/9/1 44/10/1 43/14/1
f 31/13/1 32/9/1 43/14/1
f 43/14/1 44/10/1 55/15/1
f 7/12/1 19/11/1 18/16/1
f 6/17/1 7/12/1 18/16/1
f 19/11/1 31/13/1 30/18/1
f 18/16/1 19/11/1 30/18/1
f 31/13/1 43/14/1 42/19/1
f 30/18/1 31/13/1 42/19/1
f 43/14/1 55/15/1 54/20/1
f 42/19/1 43/14/1 54/20/1
f 54/20/1 55/15/1 66/21/1
f 6/17/1 18/16/1 17/22/1
f 5/23/1 6/17/1 17/22/1
f 18/16/1 30/18/1 29/24/1
f 17/22/1 18/16/1 29/24/1
f 30/18/1 42/19/1 41/25/1
f 29/24/1 30/18/1 41/25/1
f 42/19/1 54/20/1 53/26/1
f 41/25/1 42/19/1 53/26/1
f 54/20/1 66/21/1 65/27/1
f 53/26/1 54/20/1 65/27/1
f 65/27/1 66/21/1 77/28/1
f 5/23/1 17/22/1 16/29/1
f 4/30/1 5/23/1 16/29/1
f 17/22/1 29/24/1 28/31/1
f 16/29/1 17/22/1 28/31/1
f 29/24/1 41/25/1 40/32/1
f 28/31/1 29/24/1 40/32/1
f 41/25/1 53/26/1 52/33/1
f 40/32/1 41/25/1 52/33/1
f 53/26/1 65/27/1 64/34/1
f 52/33/1 53/26/1 64/34/1
f 65/27/1 77/28/1 76/35/1
f 64/34/1 65/27/1 76/35/1
f 76/35/1 77/28/1 88/36/1
f 4/30/1 16/29/1 15/37/1
f 3/38/1 4/30/1 15/37/1
f 16/29/1 28/31/1 27/39/1
f 15/37/1 16/29/1 27/39/1
f 28/31/1 40/32/1 39/40/1
f 27/39/1 28/31/1 39/40/1
f 40/32/1 52/33/1 51/41/1
f 39/40/1 40/32/1 51/41/1
f 52/33/1 64/34/1 63/42/1
f 51/41/1 52/33/1 63/42/1
f 64/34/1 76/35/1 75/43/1
f 63/42/1 64/34/1 75/43/1
f 76/35/1 88/36/1 87/44/1
f 75/43/1 76/35/1 87/44/1
f 87/44/1 88/36/1 99/45/1
f 87/44/1 99/45/1 98/46/1
f 98/46/1 99/45/1 110/47/1
f 75/43/1 87/44/1 86/48/1
f 86/48/1 87/44/1 98/46/1
f 63/42/1 75/43/1 74/49/1
f 74/49/1 75/43/1 86/48/1
f 51/41/1 63/42/1 62/50/1
f 62/50/1 63/42/1 74/49/1
f 39/40/1 51/41/1 50/51/1
f 50/51/1 51/41/1 62/50/1
f 98/46/1 110/47/1 109/52/1
f 109/52/1 110/47/1 121/53/1
f 109/52/1 121/53/1 120/54/1
f 86/48/1 98/46/1 97/55/1
f 97/55/1 98/46/1 109/52/1
f 108/56/1 109/52/1 120/54/1
f 97/55/1 109/52/1 108/56/1
f 108/56/1 120/54/1 119/57/1
f 74/49/1 86/48/1 85/58/1
f 85/58/1 86/48/1 97/55/1
f 62/50/1 74/49/1 73/59/1
f 73/59/1 74/49/1 85/58/1
f 96/60/1 97/55/1 108/56/1
f 85/58/1 97/55/1 96/60/1
f 107/61/1 108/56/1 119/57/1
f 96/60/1 108/56/1 107/61/1
f 107/61/1 119/57/1 118/62/1
f 84/63/1 85/58/1 96/60/1
f 73/59/1 85/58/1 84/63/1
f 61/64/1 62/50/1 73/59/1
f 50/51/1 62/50/1 61/64/1
f 95/65/1 96/60/1 107/61/1
f 84/63/1 96/60/1 95/65/1
f 106/66/1 107/61/1 118/62/1
f 95/65/1 107/61/1 106/66/1
f 106/66/1 118/62/1 117/67/1
f 72/68/1 73/59/1 84/63/1
f 61/64/1 73/59/1 72/68/1
f 83/69/1 84/63/1 95/65/1
f 72/68/1 84/63/1 83/69/1
f 94/70/1 95/65/1 106/66/1
f 83/69/1 95/65/1 94/70/1
f 105/71/1 106/66/1 117/67/1
f 94/70/1 106/66/1 105/71/1
f 105/71/1 117/67/1 116/72/1
f 104/73/1 105/71/1 116/72/1
f 104/73/1 116/72/1 115/74/1
f 93/75/1 94/70/1 105/71/1
f 93/75/1 105/71/1 104/73/1
f 82/76/1 83/69/1 94/70/1
f 82/76/1 94/70/1 93/75/1
f 71/77/1 72/68/1 83/69/1
f 71/77/1 83/69/1 82/76/1
f 60/78/1 61/64/1 72/68/1
f 60/78/1 72/68/1 71/77/1
f 103/79/1 104/73/1 115/74/1
f 103/79/1 115/74/1 114/80/1
f 92/81/1 93/75/1 104/73/1
f 92/81/1 104/73/1 103/79/1
f 81/82/1 82/76/1 93/75/1
f 81/82/1 93/75/1 92/81/1
f 70/83/1 71/77/1 82/76/1
f 70/83/1 82/76/1 81/82/1
f 102/84/1 103/79/1 114/80/1
f 102/84/1 114/80/1 113/85/1
f 91/86/1 92/81/1 103/79/1
f 91/86/1 103/79/1 102/84/1
f 80/87/1 81/82/1 92/81/1
f 80/87/1 92/81/1 91/86/1
f 101/88/1 102/84/1 113/85/1
f 101/88/1 113/85/1 112/89/1
f 90/90/1 91/86/1 102/84/1
f 90/90/1 102/84/1 101/88/1
f 100/91/1 101/88/1 112/89/1
f 100/91/1 112/89/1 111/92/1
f 89/93/1 101/88/1 100/91/1
f 89/93/1 90/90/1 101/88/1
f 78/94/1 90/90/1 89/93/1
f 79/95/1 91/86/1 90/90/1
f 78/94/1 79/95/1 90/90/1
f 79/95/1 80/87/1 91/86/1
f 67/96/1 79/95/1 78/94/1
f 67/96/1 68/97/1 79/95/1
f 68/97/1 80/87/1 79/95/1
f 56/98/1 68/97/1 67/96/1
f 68/97/1 69/99/1 80/87/1
f 69/99/1 81/82/1 80/87/1
f 69/99/1 70/83/1 81/82/1
f 56/98/1 57/100/1 68/97/1
f 57/100/1 69/99/1 68/97/1
f 45/101/1 57/100/1 56/98/1
f 58/102/1 70/83/1 69/99/1
f 57/100/1 58/102/1 69/99/1
f 45/101/1 46/103/1 57/100/1
f 46/103/1 58/102/1 57/100/1
f 34/104/1 46/103/1 45/101/1
f 58/102/1 59/105/1 70/83/1
f 59/105/1 71/77/1 70/83/1
f 59/105/1 60/78/1 71/77/1
f 34/104/1 35/106/1 46/103/1
f 23/107/1 35/106/1 34/104/1
f 46/103/1 47/108/1 58/102/1
f 47/108/1 59/105/1 58/102/1
f 35/106/1 47/108/1 46/103/1
f 48/109/1 60/78/1 59/105/1
f 47/108/1 48/109/1 59/105/1
f 23/107/1 24/110/1 35/106/1
f 12/111/1 24/110/1 23/107/1
f 35/106/1 36/112/1 47/108/1
f 36/112/1 48/109/1 47/108/1
f 24/110/1 36/112/1 35/106/1
f 48/109/1 49/113/1 60/78/1
f 49/113/1 61/64/1 60/78/1
f 49/113/1 50/51/1 61/64/1
f 12/111/1 13/114/1 24/110/1
f 1/115/1 13/114/1 12/111/1
f 1/115/1 2/116/1 13/114/1
f 24/110/1 25/117/1 36/112/1
f 13/114/1 25/117/1 24/110/1
f 36/112/1 37/118/1 48/109/1
f 37/118/1 49/113/1 48/109/1
f 25/117/1 37/118/1 36/112/1
f 38/119/1 50/51/1 49/113/1
f 37/118/1 38/119/1 49/113/1
f 38/119/1 39/40/1 50/51/1
f 27/39/1 39/40/1 38/119/1
f 2/116/1 14/120/1 13/114/1
f 13/114/1 14/120/1 25/117/1
f 2/116/1 3/38/1 14/120/1
f 3/38/1 15/37/1 14/120/1
f 25/117/1 26/121/1 37/118/1
f 26/121/1 38/119/1 37/118/1
f 26/121/1 27/39/1 38/119/1
f 14/120/1 26/121/1 25/117/1
f 14/120/1 15/37/1 26/121/1
f 15/37/1 27/39/1 26/121/1
g Ground_Scene
v -24.999998 24.999998 0.000002
v -24.999998 19.999998 0.000002
v -24.999998 14.999999 0.000002
v -24.999998 9.999999 0.000002
v -24.999998 5.000000 0.000002
v -24.999998 0.000000 0.000002
v -24.999998 -5.000001 0.000002
v -24.999998 -9.999999 0.000002
v -24.999998 -14.999999 0.000002
v -24.999998 -20.000002 0.000002
v -24.999998 -24.999998 0.000002
v -19.999998 24.999998 0.000002
v -19.999998 19.999998 0.000002
v -19.999998 14.999999 0.000002
v -19.999998 9.999999 0.000002
v -19.999998 5.000000 0.000002
v -19.999998 0.000000 0.000002
v -19.999998 -5.000001 0.000002
v -19.999998 -9.999999 0.000002
v -19.999998 -14.999999 0.000002
v -19.999998 -20.000002 0.000002
v -19.999998 -24.999998 0.000002
v -14.999999 24.999998 0.000001
v -14.999999 19.999998 0.000001
v -14.999999 14.999999 0.000001
v -14.999999 9.999999 0.000001
v -14.999999 5.000000 0.000001
v -14.999999 0.000000 0.000001
v -14.999999 -5.000001 0.000001
v -14.999999 -9.999999 0.000001
v -14.999999 -14.999999 0.000001
v -14.999999 -20.000002 0.000001
v -14.999999 -24.999998 0.000001
v -9.999999 24.999998 0.000001
v -9.999999 19.999998 0.000001
v -9.999999 14.999999 0.000001
v -9.999999 9.999999 0.000001
v -9.999999 5.000000 0.000001
v -9.999999 0.000000 0.000001
v -9.999999 -5.000001 0.000001
v -9.999999 -9.999999 0.000001
v -9.999999 -14.999999 0.000001
v -9.999999 -20.000002 0.000001
v -9.999999 -24.999998 0.000001
v -5.000000 24.999998 0.000000
v -5.000000 19.999998 0.000000
v -5.000000 14.999999 0.000000
v -5.000000 9.999999 0.000000
v -5.000000 5.000000 0.000000
v -5.000000 0.000000 0.000000
v -5.000000 -5.000001 0.000000
v -5.000000 -9.999999 0.000000
v -5.000000 -14.999999 0.000000
v -5.000000 -20.000002 0.000000
v -5.000000 -24.999998 0.000000
v 0.000000 24.999998 0.000000
v 0.000000 19.999998 0.000000
v 0.000000 14.999999 0.000000
v 0.000000 9.999999 0.000000
v 0.000000 5.000000 0.000000
v 0.000000 0.000000 0.000000
v 0.000000 -5.000001 0.000000
v 0.000000 -9.999999 0.000000
v 0.000000 -14.999999 0.000000
v 0.000000 -20.000002 0.000000
v 0.000000 -24.999998 0.000000
v 5.000001 24.999998 -0.000000
v 5.000001 19.999998 -0.000000
v 5.000001 14.999999 -0.000000
v 5.000001 9.999999 -0.000000
v 5.000001 5.000000 -0.000000
v 5.000001 0.000000 -0.000000
v 5.000001 -5.000001 -0.000000
v 5.000001 -9.999999 -0.000000
v 5.000001 -14.999999 -0.000000
v 5.000001 -20.000002 -0.000000
v 5.000001 -24.999998 -0.000000
v 9.999999 24.999998 -0.000001
v 9.999999 19.999998 -0.000001
v 9.999999 14.999999 -0.000001
v 9.999999 9.999999 -0.000001
v 9.999999 5.000000 -0.000001
v 9.999999 0.000000 -0.000001
v 9.999999 -5.000001 -0.000001
v 9.999999 -9.999999 -0.000001
v 9.999999 -14.999999 -0.000001
v 9.999999 -20.000002 -0.000001
v 9.999999 -24.999998 -0.000001
v 14.999999 24.999998 -0.000001
v 14.999999 19.999998 -0.000001
v 14.999999 14.999999 -0.000001
v 14.999999 9.999999 -0.000001
v 14.999999 5.000000 -0.000001
v 14.999999 0.000000 -0.000001
v 14.999999 -5.000001 -0.000001
v 14.999999 -9.999999 -0.000001
v 14.999999 -14.999999 -0.000001
v 14.999999 -20.000002 -0.000001
v 14.999999 -24.999998 -0.000001
v 20.000002 24.999998 -0.000002
v 20.000002 19.999998 -0.000002
v 20.000002 14.999999 -0.000002
v 20.000002 9.999999 -0.000002
v 20.000002 5.000000 -0.000002
v 20.000002 0.000000 -0.000002
v 20.000002 -5.000001 -0.000002
v 20.000002 -9.999999 -0.000002
v 20.000002 -14.999999 -0.000002
v 20.000002 -20.000002 -0.000002
v 20.000002 -24.999998 -0.000002
v 24.999998 24.999998 -0.000002
v 24.999998 19.999998 -0.000002
v 24.999998 14.999999 -0.000002
v 24.999998 9.999999 -0.000002
v 24.999998 5.000000 -0.000002
v 24.999998 0.000000 -0.000002
v 24.999998 -5.000001 -0.000002
v 24.999998 -9.999999 -0.000002
v 24.999998 -14.999999 -0.000002
v 24.999998 -20.000002 -0.000002
v 24.999998 -24.999998 -0.000002
vn -0.0000 -0.0000 1.0000
vt 0.900000 0.000000
vt 1.000000 0.000000
vt 1.000000 0.100000
vt 0.900000 0.100000
vt 0.800000 0.000000
vt 1.000000 0.200000
vt 0.800000 0.100000
vt 0.700000 0.000000
vt 0.900000 0.200000
vt 1.000000 0.300000
vt 0.700000 0.100000
vt 0.600000 0.000000
vt 0.800000 0.200000
vt 0.900000 0.300000
vt 1.000000 0.400000
vt 0.600000 0.100000
vt 0.500000 0.000000
vt 0.700000 0.200000
vt 0.800000 0.300000
vt 0.900000 0.400000
vt 1.000000 0.500000
vt 0.500000 0.100000
vt 0.400000 0.000000
vt 0.600000 0.200000
vt 0.700000 0.300000
vt 0.800000 0.400000
vt 0.900000 0.500000
vt 1.000000 0.600000
vt 0.400000 0.100000
vt 0.300000 0.000000
vt 0.500000 0.200000
vt 0.600000 0.300000
vt 0.700000 0.400000
vt 0.800000 0.500000
vt 0.900000 0.600000
vt 1.000000 0.700000
vt 0.300000 0.100000
vt 0.200000 0.000000
vt 0.400000 0.200000
vt 0.500000 0.300000
vt 0.600000 0.400000
vt 0.700000 0.500000
vt 0.800000 0.600000
vt 0.900000 0.700000
vt 1.000000 0.800000
vt 0.900000 0.800000
vt 1.000000 0.900000
vt 0.800000 0.700000
vt 0.700000 0.600000
vt 0.600000 0.500000
vt 0.500000 0.400000
vt 0.900000 0.900000
vt 1.000000 1.000000
vt 0.900000 1.000000
vt 0.800000 0.800000
vt 0.800000 0.900000
vt 0.800000 1.000000
vt 0.700000 0.700000
vt 0.600000 0.600000
vt 0.700000 0.800000
vt 0.700000 0.900000
vt 0.700000 1.000000
vt 0.600000 0.700000
vt 0.500000 0.500000
vt 0.600000 0.800000
vt 0.600000 0.900000
vt 0.600000 1.000000
vt 0.500000 0.600000
vt 0.500000 0.700000
vt 0.500000 0.800000
vt 0.500000 0.900000
vt 0.500000 1.000000
vt 0.400000 0.900000
vt 0.400000 1.000000
vt 0.400000 0.800000
vt 0.400000 0.700000
vt 0.400000 0.600000
vt 0.400000 0.500000
vt 0.300000 0.900000
vt 0.300000 1.000000
vt 0.300000 0.800000
vt 0.300000 0.700000
vt 0.300000 0.600000
vt 0.200000 0.900000
vt 0.200000 1.000000
vt 0.200000 0.800000
vt 0.200000 0.700000
vt 0.100000 0.900000
vt 0.100000 1.000000
vt 0.100000 0.800000
vt 0.000000 0.900000
vt 0.000000 1.000000
vt 0.000000 0.800000
vt 0.000000 0.700000
vt 0.100000 0.700000
vt 0.000000 0.600000
vt 0.100000 0.600000
vt 0.000000 0.500000
vt 0.200000 0.600000
vt 0.100000 0.500000
vt 0.000000 0.400000
vt 0.200000 0.500000
vt 0.100000 0.400000
vt 0.000000 0.300000
vt 0.300000 0.500000
vt 0.100000 0.300000
vt 0.000000 0.200000
vt 0.200000 0.400000
vt 0.300000 0.400000
vt 0.100000 0.200000
vt 0.000000 0.100000
vt 0.200000 0.300000
vt 0.400000 0.400000
vt 0.100000 0.100000
vt 0.000000 0.000000
vt 0.100000 0.000000
vt 0.200000 0.200000
vt 0.300000 0.300000
vt 0.400000 0.300000
vt 0.200000 0.100000
vt 0.300000 0.200000
s 1
usemtl Concrete_pattern_03
f 131/122/2 132/123/2 143/124/2
f 131/122/2 143/124/2 142/125/2
f 130/126/2 131/122/2 142/125/2
f 142/125/2 143/124/2 154/127/2
f 130/126/2 142/125/2 141/128/2
f 129/129/2 130/126/2 141/128/2
f 142/125/2 154/127/2 153/130/2
f 141/128/2 142/125/2 153/130/2
f 153/130/2 154/127/2 165/131/2
f 129/129/2 141/128/2 140/132/2
f 128/133/2 129/129/2 140/132/2
f 141/128/2 153/130/2 152/134/2
f 140/132/2 141/128/2 152/134/2
f 153/130/2 165/131/2 164/135/2
f 152/134/2 153/130/2 164/135/2
f 164/135/2 165/131/2 176/136/2
f 128/133/2 140/132/2 139/137/2
f 127/138/2 128/133/2 139/137/2
f 140/132/2 152/134/2 151/139/2
f 139/137/2 140/132/2 151/139/2
f 152/134/2 164/135/2 163/140/2
f 151/139/2 152/134/2 163/140/2
f 164/135/2 176/136/2 175/141/2
f 163/140/2 164/135/2 175/141/2
f 175/141/2 176/136/2 187/142/2
f 127/138/2 139/137/2 138/143/2
f 126/144/2 127/138/2 138/143/2
f 139/137/2 151/139/2 150/145/2
f 138/143/2 139/137/2 150/145/2
f 151/139/2 163/140/2 162/146/2
f 150/145/2 151/139/2 162/146/2
f 163/140/2 175/141/2 174/147/2
f 162/146/2 163/140/2 174/147/2
f 175/141/2 187/142/2 186/148/2
f 174/147/2 175/141/2 186/148/2
f 186/148/2 187/142/2 198/149/2
f 126/144/2 138/143/2 137/150/2
f 125/151/2 126/144/2 137/150/2
f 138/143/2 150/145/2 149/152/2
f 137/150/2 138/143/2 149/152/2
f 150/145/2 162/146/2 161/153/2
f 149/152/2 150/145/2 161/153/2
f 162/146/2 174/147/2 173/154/2
f 161/153/2 162/146/2 173/154/2
f 174/147/2 186/148/2 185/155/2
f 173/154/2 174/147/2 185/155/2
f 186/148/2 198/149/2 197/156/2
f 185/155/2 186/148/2 197/156/2
f 197/156/2 198/149/2 209/157/2
f 125/151/2 137/150/2 136/158/2
f 124/159/2 125/151/2 136/158/2
f 137/150/2 149/152/2 148/160/2
f 136/158/2 137/150/2 148/160/2
f 149/152/2 161/153/2 160/161/2
f 148/160/2 149/152/2 160/161/2
f 161/153/2 173/154/2 172/162/2
f 160/161/2 161/153/2 172/162/2
f 173/154/2 185/155/2 184/163/2
f 172/162/2 173/154/2 184/163/2
f 185/155/2 197/156/2 196/164/2
f 184/163/2 185/155/2 196/164/2
f 197/156/2 209/157/2 208/165/2
f 196/164/2 197/156/2 208/165/2
f 208/165/2 209/157/2 220/166/2
f 208/165/2 220/166/2 219/167/2
f 219/167/2 220/166/2 231/168/2
f 196/164/2 208/165/2 207/169/2
f 207/169/2 208/165/2 219/167/2
f 184/163/2 196/164/2 195/170/2
f 195/170/2 196/164/2 207/169/2
f 172/162/2 184/163/2 183/171/2
f 183/171/2 184/163/2 195/170/2
f 160/161/2 172/162/2 171/172/2
f 171/172/2 172/162/2 183/171/2
f 219/167/2 231/168/2 230/173/2
f 230/173/2 231/168/2 242/174/2
f 230/173/2 242/174/2 241/175/2
f 207/169/2 219/167/2 218/176/2
f 218/176/2 219/167/2 230/173/2
f 229/177/2 230/173/2 241/175/2
f 218/176/2 230/173/2 229/177/2
f 229/177/2 241/175/2 240/178/2
f 195/170/2 207/169/2 206/179/2
f 206/179/2 207/169/2 218/176/2
f 183/171/2 195/170/2 194/180/2
f 194/180/2 195/170/2 206/179/2
f 217/181/2 218/176/2 229/177/2
f 206/179/2 218/176/2 217/181/2
f 228/182/2 229/177/2 240/178/2
f 217/181/2 229/177/2 228/182/2
f 228/182/2 240/178/2 239/183/2
f 205/184/2 206/179/2 217/181/2
f 194/180/2 206/179/2 205/184/2
f 182/185/2 183/171/2 194/180/2
f 171/172/2 183/171/2 182/185/2
f 216/186/2 217/181/2 228/182/2
f 205/184/2 217/181/2 216/186/2
f 227/187/2 228/182/2 239/183/2
f 216/186/2 228/182/2 227/187/2
f 227/187/2 239/183/2 238/188/2
f 193/189/2 194/180/2 205/184/2
f 182/185/2 194/180/2 193/189/2
f 204/190/2 205/184/2 216/186/2
f 193/189/2 205/184/2 204/190/2
f 215/191/2 216/186/2 227/187/2
f 204/190/2 216/186/2 215/191/2
f 226/192/2 227/187/2 238/188/2
f 215/191/2 227/187/2 226/192/2
f 226/192/2 238/188/2 237/193/2
f 225/194/2 226/192/2 237/193/2
f 225/194/2 237/193/2 236/195/2
f 214/196/2 215/191/2 226/192/2
f 214/196/2 226/192/2 225/194/2
f 203/197/2 204/190/2 215/191/2
f 203/197/2 215/191/2 214/196/2
f 192/198/2 193/189/2 204/190/2
f 192/198/2 204/190/2 203/197/2
f 181/199/2 182/185/2 193/189/2
f 181/199/2 193/189/2 192/198/2
f 224/200/2 225/194/2 236/195/2
f 224/200/2 236/195/2 235/201/2
f 213/202/2 214/196/2 225/194/2
f 213/202/2 225/194/2 224/200/2
f 202/203/2 203/197/2 214/196/2
f 202/203/2 214/196/2 213/202/2
f 191/204/2 192/198/2 203/197/2
f 191/204/2 203/197/2 202/203/2
f 223/205/2 224/200/2 235/201/2
f 223/205/2 235/201/2 234/206/2
f 212/207/2 213/202/2 224/200/2
f 212/207/2 224/200/2 223/205/2
f 201/208/2 202/203/2 213/202/2
f 201/208/2 213/202/2 212/207/2
f 222/209/2 223/205/2 234/206/2
f 222/209/2 234/206/2 233/210/2
f 211/211/2 212/207/2 223/205/2
f 211/211/2 223/205/2 222/209/2
f 221/212/2 222/209/2 233/210/2
f 221/212/2 233/210/2 232/213/2
f 210/214/2 222/209/2 221/212/2
f 210/214/2 211/211/2 222/209/2
f 199/215/2 211/211/2 210/214/2
f 200/216/2 212/207/2 211/211/2
f 199/215/2 200/216/2 211/211/2
f 200/216/2 201/208/2 212/207/2
f 188/217/2 200/216/2 199/215/2
f 188/217/2 189/218/2 200/216/2
f 189/218/2 201/208/2 200/216/2
f 177/219/2 189/218/2 188/217/2
f 189/218/2 190/220/2 201/208/2
f 190/220/2 202/203/2 201/208/2
f 190/220/2 191/204/2 202/203/2
f 177/219/2 178/221/2 189/218/2
f 178/221/2 190/220/2 189/218/2
f 166/222/2 178/221/2 177/219/2
f 179/223/2 191/204/2 190/220/2
f 178/221/2 179/223/2 190/220/2
f 166/222/2 167/224/2 178/221/2
f 167/224/2 179/223/2 178/221/2
f 155/225/2 167/224/2 166/222/2
f 179/223/2 180/226/2 191/204/2
f 180/226/2 192/198/2 191/204/2
f 180/226/2 181/199/2 192/198/2
f 155/225/2 156/227/2 167/224/2
f 144/228/2 156/227/2 155/225/2
f 167/224/2 168/229/2 179/223/2
f 168/229/2 180/226/2 179/223/2
f 156/227/2 168/229/2 167/224/2
f 169/230/2 181/199/2 180/226/2
f 168/229/2 169/230/2 180/226/2
f 144/228/2 145/231/2 156/227/2
f 133/232/2 145/231/2 144/228/2
f 156/227/2 157/233/2 168/229/2
f 157/233/2 169/230/2 168/229/2
f 145/231/2 157/233/2 156/227/2
f 169/230/2 170/234/2 181/199/2
f 170/234/2 182/185/2 181/199/2
f 170/234/2 171/172/2 182/185/2
f 133/232/2 134/235/2 145/231/2
f 122/236/2 134/235/2 133/232/2
f 122/236/2 123/237/2 134/235/2
f 145/231/2 146/238/2 157/233/2
f 134/235/2 146/238/2 145/231/2
f 157/233/2 158/239/2 169/230/2
f 158/239/2 170/234/2 169/230/2
f 146/238/2 158/239/2 157/233/2
f 159/240/2 171/172/2 170/234/2
f 158/239/2 159/240/2 170/234/2
f 159/240/2 160/161/2 171/172/2
f 148/160/2 160/161/2 159/240/2
f 123/237/2 135/241/2 134/235/2
f 134/235/2 135/241/2 146/238/2
f 123/237/2 124/159/2 135/241/2
f 124/159/2 136/158/2 135/241/2
f 146/238/2 147/242/2 158/239/2
f 147/242/2 159/240/2 158/239/2
f 147/242/2 148/160/2 159/240/2
f 135/241/2 147/242/2 146/238/2
f 135/241/2 136/158/2 147/242/2
f 136/158/2 148/160/2 147/242/2
g wall_01_Scene.001
v 15.000000 -14.950000 -0.000001
v 15.000000 -14.950000 4.999999
v 10.000000 -14.950000 4.999999
v 10.000000 -14.950000 -0.000001
vn -0.0000 1.0000 -0.0000
vt 1.000000 1.000000
vt 0.000000 0.000000
vt 1.000000 0.000000
vt 0.000000 1.000000
s 1
usemtl Concrete_pattern_01A
f 243/243/3 245/244/3 244/245/3
f 243/243/3 246/246/3 245/244/3
g wall_02_Scene.001
v 10.000000 -14.950000 -0.000001
v 10.000000 -14.950000 4.999999
v 5.000000 -14.950000 5.000000
v 5.000000 -14.950000 -0.000000
vn -0.0000 1.0000 -0.0000
vt 1.000000 1.000000
vt 0.000000 0.000000
vt 1.000000 0.000000
vt 0.000000 1.000000
s 1
usemtl Concrete_pattern_01A
f 247/247/4 249/248/4 248/249/4
f 247/247/4 250/250/4 249/248/4
g wall_03_Scene.001
v 5.000000 -14.950000 -0.000000
v 5.000000 -14.950000 5.000000
v 0.000000 -14.950000 5.000000
v 0.000000 -14.950000 0.000000
vn -0.0000 1.0000 -0.0000
vt 1.000000 1.000000
vt 0.000000 0.000000
vt 1.000000 0.000000
vt 0.000000 1.000000
s 1
usemtl Concrete_pattern_01A
f 251/251/5 253/252/5 252/253/5
f 251/251/5 254/254/5 253/252/5
g wall_04_Scene.001
v 0.000000 -14.950000 0.000000
v 0.000000 -14.950000 5.000000
v -5.000000 -14.950000 5.000000
v -5.000000 -14.950000 0.000000
vn -0.0000 1.0000 -0.0000
vt 1.000000 1.000000
vt 0.000000 0.000000
vt 1.000000 0.000000
vt 0.000000 1.000000
s 1
usemtl Concrete_pattern_01A
f 255/255/6 257/256/6 256/257/6
f 255/255/6 258/258/6 257/256/6
g wall_05_Scene.001
v -5.000000 -14.950000 0.000000
v -5.000000 -14.950000 5.000000
v -10.000000 -14.950000 5.000001
v -10.000000 -14.950000 0.000001
vn -0.0000 1.0000 -0.0000
vt 1.000000 1.000000
vt 0.000000 0.000000
vt 1.000000 0.000000
vt 0.000000 1.000000
s 1
usemtl Concrete_pattern_01A
f 259/259/7 261/260/7 260/261/7
f 259/259/7 262/262/7 261/260/7
g wall_06_Scene.001
v -10.000000 -14.950000 0.000001
v -10.000000 -14.950000 5.000001
v -15.000000 -14.950000 5.000001
v -15.000000 -14.950000 0.000001
vn -0.0000 1.0000 -0.0000
vt 1.000000 1.000000
vt 0.000000 0.000000
vt 1.000000 0.000000
vt 0.000000 1.000000
s 1
usemtl Concrete_pattern_01A
f 263/263/8 265/264/8 264/265/8
f 263/263/8 266/266/8 265/264/8
g wall_07_Scene.001
v -14.950000 -15.000000 0.000001
v -14.950000 -15.000000 5.000001
v -14.950000 -10.000000 5.000001
v -14.950001 -10.000000 0.000001
vn 1.0000 -0.0000 -0.0000
vt 1.000000 1.000000
vt 0.000000 0.000000
vt 1.000000 0.000000
vt 0.000000 1.000000
s 1
usemtl Concrete_pattern_01A
f 267/267/9 269/268/9 268/269/9
f 267/267/9 270/270/9 269/268/9
g wall_08_Scene.001
v -14.950000 -10.000000 0.000001
v -14.950000 -10.000000 5.000001
v -14.950000 -5.000000 5.000001
v -14.950001 -5.000000 0.000001
vn 1.0000 -0.0000 -0.0000
vt 1.000000 1.000000
vt 0.000000 0.000000
vt 1.000000 0.000000
vt 0.000000 1.000000
s 1
usemtl Concrete_pattern_01A
f 271/271/10 273/272/10 272/273/10
f 271/271/10 274/274/10 273/272/10
g wall_09_Scene.001
v -14.950000 -5.000000 0.000001
v -14.950000 -5.000000 5.000001
v -14.950000 0.000000 5.000001
v -14.950001 0.000000 0.000001
vn 1.0000 -0.0000 -0.0000
vt 1.000000 1.000000
vt 0.000000 0.000000
vt 1.000000 0.000000
vt 0.000000 1.000000
s 1
usemtl Concrete_pattern_01A
f 275/275/11 277/276/11 276/277/11
f 275/275/11 278/278/11 277/276/11
g wall_10_Scene.001
v -14.950000 0.000000 0.000001
v -14.950000 0.000000 5.000001
v -14.950000 5.000000 5.000001
v -14.950001 5.000000 0.000001
vn 1.0000 -0.0000 -0.0000
vt 1.000000 1.000000
vt 0.000000 0.000000
vt 1.000000 0.000000
vt 0.000000 1.000000
s 1
usemtl Concrete_pattern_01A
f 279/279/12 281/280/12 280/281/12
f 279/279/12 282/282/12 281/280/12
g wall_11_Scene.001
v -14.950000 5.000000 0.000001
v -14.950000 5.000000 5.000001
v -14.950000 10.000000 5.000001
v -14.950001 10.000000 0.000001
vn 1.0000 -0.0000 -0.0000
vt 1.000000 1.000000
vt 0.000000 0.000000
vt 1.000000 0.000000
vt 0.000000 1.000000
s 1
usemtl Concrete_pattern_01A
f 283/283/13 285/284/13 284/285/13
f 283/283/13 286/286/13 285/284/13
g wall_12_Scene.001
v -14.950000 10.000000 0.000001
v -14.950000 10.000000 5.000001
v -14.950000 15.000000 5.000001
v -14.950001 15.000000 0.000001
vn 1.0000 -0.0000 -0.0000
vt 1.000000 1.000000
vt 0.000000 0.000000
vt 1.000000 0.000000
vt 0.000000 1.000000
s 1
usemtl Concrete_pattern_01A
f 287/287/14 289/288/14 288/289/14
f 287/287/14 290/290/14 289/288/14
g wall_13_Scene.001
v -15.000000 14.950001 0.000001
v -15.000000 14.950001 5.000001
v -10.000000 14.950000 5.000001
v -10.000000 14.950000 0.000001
vn -0.0000 -1.0000 -0.0000
vt 1.000000 1.000000
vt 0.000000 0.000000
vt 1.000000 0.000000
vt 0.000000 1.000000
s 1
usemtl Concrete_pattern_01A
f 291/291/15 293/292/15 292/293/15
f 291/291/15 294/294/15 293/292/15
g wall_14_Scene.001
v -10.000000 14.950001 0.000001
v -10.000000 14.950001 5.000001
v -5.000000 14.950000 5.000000
v -5.000000 14.950000 0.000000
vn -0.0000 -1.0000 -0.0000
vt 1.000000 1.000000
vt 0.000000 0.000000
vt 1.000000 0.000000
vt 0.000000 1.000000
s 1
usemtl Concrete_pattern_01A
f 295/295/16 297/296/16 296/297/16
f 295/295/16 298/298/16 297/296/16
g wall_15_Scene.001
v -5.000000 14.950001 0.000000
v -5.000000 14.950001 5.000000
v 0.000000 14.950000 5.000000
v 0.000000 14.950000 0.000000
vn -0.0000 -1.0000 -0.0000
vt 1.000000 1.000000
vt 0.000000 0.000000
vt 1.000000 0.000000
vt 0.000000 1.000000
s 1
usemtl Concrete_pattern_01A
f 299/299/17 301/300/17 300/301/17
f 299/299/17 302/302/17 301/300/17
g wall_16_Scene.001
v 0.000000 14.950001 0.000000
v 0.000000 14.950001 5.000000
v 5.000000 14.950000 5.000000
v 5.000000 14.950000 -0.000000
vn -0.0000 -1.0000 -0.0000
vt 1.000000 1.000000
vt 0.000000 0.000000
vt 1.000000 0.000000
vt 0.000000 1.000000
s 1
usemtl Concrete_pattern_01A
f 303/303/18 305/304/18 304/305/18
f 303/303/18 306/306/18 305/304/18
g wall_17_Scene.001
v 5.000000 14.950001 -0.000000
v 5.000000 14.950001 5.000000
v 10.000000 14.950000 4.999999
v 10.000000 14.950000 -0.000001
vn -0.0000 -1.0000 -0.0000
vt 1.000000 1.000000
vt 0.000000 0.000000
vt 1.000000 0.000000
vt 0.000000 1.000000
s 1
usemtl Concrete_pattern_01A
f 307/307/19 309/308/19 308/309/19
f 307/307/19 310/310/19 309/308/19
g wall_18_Scene.001
v 10.000000 14.950001 -0.000001
v 10.000000 14.950001 4.999999
v 15.000000 14.950000 4.999999
v 15.000000 14.950000 -0.000001
vn -0.0000 -1.0000 -0.0000
vt 1.000000 1.000000
vt 0.000000 0.000000
vt 1.000000 0.000000
vt 0.000000 1.000000
s 1
usemtl Concrete_pattern_01A
f 311/311/20 313/312/20 312/313/20
f 311/311/20 314/314/20 313/312/20
g wall_19_Scene.001
v 14.950000 15.000000 -0.000001
v 14.950001 15.000000 4.999999
v 14.950000 10.000000 4.999999
v 14.950000 10.000000 -0.000001
vn -1.0000 -0.0000 -0.0000
vt 1.000000 1.000000
vt 0.000000 0.000000
vt 1.000000 0.000000
vt 0.000000 1.000000
s 1
usemtl Concrete_pattern_01A
f 315/315/21 317/316/21 316/317/21
f 315/315/21 318/318/21 317/316/21
g wall_20_Scene.001
v 14.950000 10.000000 -0.000001
v 14.950001 10.000000 4.999999
v 14.950000 5.000000 4.999999
v 14.950000 5.000000 -0.000001
vn -1.0000 -0.0000 -0.0000
vt 1.000000 1.000000
vt 0.000000 0.000000
vt 1.000000 0.000000
vt 0.000000 1.000000
s 1
usemtl Concrete_pattern_01A
f 319/319/22 321/320/22 320/321/22
f 319/319/22 322/322/22 321/320/22
g wall_21_Scene.001
v 14.950000 5.000000 -0.000001
v 14.950001 5.000000 4.999999
v 14.950000 0.000000 4.999999
v 14.950000 0.000000 -0.000001
vn -1.0000 -0.0000 -0.0000
vt 1.000000 1.000000
vt 0.000000 0.000000
vt 1.000000 0.000000
vt 0.000000 1.000000
s 1
usemtl Concrete_pattern_01A
f 323/323/23 325/324/23 324/325/23
f 323/323/23 326/326/23 325/324/23
g wall_22_Scene.001
v 14.950000 0.000000 -0.000001
v 14.950001 0.000000 4.999999
v 14.950000 -5.000000 4.999999
v 14.950000 -5.000000 -0.000001
vn -1.0000 -0.0000 -0.0000
vt 1.000000 1.000000
vt 0.000000 0.000000
vt 1.000000 0.000000
vt 0.000000 1.000000
s 1
usemtl Concrete_pattern_01A
f 327/327/24 329/328/24 328/329/24
f 327/327/24 330/330/24 329/328/24
g wall_23_Scene.001
v 14.950000 -5.000000 -0.000001
v 14.950001 -5.000000 4.999999
v 14.950000 -10.000000 4.999999
v 14.950000 -10.000000 -0.000001
vn -1.0000 -0.0000 -0.0000
vt 1.000000 1.000000
vt 0.000000 0.000000
vt 1.000000 0.000000
vt 0.000000 1.000000
s 1
usemtl Concrete_pattern_01A
f 331/331/25 333/332/25 332/333/25
f 331/331/25 334/334/25 333/332/25
g wall_24_Scene.001
v 14.950000 -10.000000 -0.000001
v 14.950001 -10.000000 4.999999
v 14.950000 -15.000000 4.999999
v 14.950000 -15.000000 -0.000001
vn -1.0000 -0.0000 -0.0000
vt 1.000000 1.000000
vt 0.000000 0.000000
vt 1.000000 0.000000
vt 0.000000 1.000000
s 1
usemtl Concrete_pattern_01A
f 335/335/26 337/336/26 336/337/26
f 335/335/26 338/338/26 337/336/26
g m_wall_1_1_Scene.002
v 7.449999 7.449500 -0.145000
v 7.349999 7.449500 -0.145000
v 7.449999 7.449500 2.964999
v 7.349999 7.449500 2.964999
v 7.450000 2.450500 2.964999
v 7.350000 2.450500 2.964999
v 7.450000 2.450500 -0.145000
v 7.350000 2.450500 -0.145000
vn -0.0000 1.0000 -0.0000
vn -0.0000 -0.0000 1.0000
vn -0.0000 -1.0000 -0.0000
vn -0.0000 -0.0000 -1.0000
vn -1.0000 -0.0000 -0.0000
vn 1.0000 -0.0000 -0.0000
vt 0.000000 0.000000
vt 1.000000 1.000000
vt 0.000000 1.000000
vt 1.000000 0.000000
s 1
usemtl Concrete_pattern_01C
f 339/339/27 342/340/27 341/341/27
f 339/339/27 340/342/27 342/340/27
f 341/339/28 344/340/28 343/341/28
f 341/339/28 342/342/28 344/340/28
f 343/339/29 346/340/29 345/341/29
f 343/339/29 344/342/29 346/340/29
f 345/339/30 340/340/30 339/341/30
f 345/339/30 346/342/30 340/340/30
f 340/339/31 344/340/31 342/341/31
f 340/339/31 346/342/31 344/340/31
f 345/339/32 341/340/32 343/341/32
f 345/339/32 339/342/32 341/340/32
g m_wall_4_2_Scene.002
v -2.450500 2.450000 -0.145000
v -2.450500 2.550000 -0.145000
v -2.450500 2.450000 2.965000
v -2.450500 2.550000 2.965000
v -7.449500 2.450000 2.965000
v -7.449499 2.550000 2.965000
v -7.449500 2.450000 -0.144999
v -7.449500 2.550000 -0.144999
vn 1.0000 -0.0000 -0.0000
vn -0.0000 -0.0000 1.0000
vn -1.0000 -0.0000 -0.0000
vn -0.0000 -0.0000 -1.0000
vn -0.0000 1.0000 -0.0000
vn -0.0000 -1.0000 -0.0000
vt 0.000000 0.000000
vt 1.000000 1.000000
vt 0.000000 1.000000
vt 1.000000 0.000000
s 1
usemtl Material
f 347/343/33 350/344/33 349/345/33
f 347/343/33 348/346/33 350/344/33
f 349/343/34 352/344/34 351/345/34
f 349/343/34 350/346/34 352/344/34
f 351/343/35 354/344/35 353/345/35
f 351/343/35 352/346/35 354/344/35
f 353/343/36 348/344/36 347/345/36
f 353/343/36 354/346/36 348/344/36
f 348/343/37 352/344/37 350/345/37
f 348/343/37 354/346/37 352/344/37
f 353/343/38 349/344/38 351/345/38
f 353/343/38 347/346/38 349/344/38
g m_wall_4_1_Scene.002
v -2.450000 7.449500 -0.145000
v -2.550000 7.449500 -0.145000
v -2.450000 7.449500 2.965000
v -2.550000 7.449500 2.965000
v -2.450000 2.450500 2.965000
v -2.550000 2.450500 2.965000
v -2.450000 2.450500 -0.145000
v -2.550000 2.450500 -0.145000
vn -0.0000 1.0000 -0.0000
vn -0.0000 -0.0000 1.0000
vn -0.0000 -1.0000 -0.0000
vn -0.0000 -0.0000 -1.0000
vn -1.0000 -0.0000 -0.0000
vn 1.0000 -0.0000 -0.0000
vt 0.000000 0.000000
vt 1.000000 1.000000
vt 0.000000 1.000000
vt 1.000000 0.000000
s 1
usemtl Material
f 355/347/39 358/348/39 357/349/39
f 355/347/39 356/350/39 358/348/39
f 357/347/40 360/348/40 359/349/40
f 357/347/40 358/350/40 360/348/40
f 359/347/41 362/348/41 361/349/41
f 359/347/41 360/350/41 362/348/41
f 361/347/42 356/348/42 355/349/42
f 361/347/42 362/350/42 356/348/42
f 356/347/43 360/348/43 358/349/43
f 356/347/43 362/350/43 360/348/43
f 361/347/44 357/348/44 359/349/44
f 361/347/44 355/350/44 357/348/44
g m_wall_1_2_Scene.002
v 7.449499 2.450000 -0.145000
v 7.449500 2.550000 -0.145000
v 7.449500 2.450000 2.964999
v 7.449500 2.550000 2.964999
v 2.450500 2.450000 2.965000
v 2.450500 2.550000 2.965000
v 2.450500 2.450000 -0.145000
v 2.450500 2.550000 -0.145000
vn 1.0000 -0.0000 -0.0000
vn -0.0000 -0.0000 1.0000
vn -1.0000 -0.0000 -0.0000
vn -0.0000 -0.0000 -1.0000
vn -0.0000 1.0000 -0.0000
vn -0.0000 -1.0000 -0.0000
vt 0.000000 0.000000
vt 1.000000 1.000000
vt 0.000000 1.000000
vt 1.000000 0.000000
s 1
usemtl Concrete_pattern_01C
f 363/351/45 366/352/45 365/353/45
f 363/351/45 364/354/45 366/352/45
f 365/351/46 368/352/46 367/353/46
f 365/351/46 366/354/46 368/352/46
f 367/351/47 370/352/47 369/353/47
f 367/351/47 368/354/47 370/352/47
f 369/351/48 364/352/48 363/353/48
f 369/351/48 370/354/48 364/352/48
f 364/351/49 368/352/49 366/353/49
f 364/351/49 370/354/49 368/352/49
f 369/351/50 365/352/50 367/353/50
f 369/351/50 363/354/50 365/352/50
g m_wall_2_4_Scene.002
v 2.450500 -2.450000 -0.145000
v 2.450500 -2.550000 -0.145000
v 2.450500 -2.450000 2.965000
v 2.450500 -2.550000 2.965000
v 7.449500 -2.450000 2.964999
v 7.449500 -2.550000 2.964999
v 7.449500 -2.450000 -0.145000
v 7.449500 -2.550000 -0.145000
vn -1.0000 -0.0000 -0.0000
vn -0.0000 -0.0000 1.0000
vn 1.0000 -0.0000 -0.0000
vn -0.0000 -0.0000 -1.0000
vn -0.0000 -1.0000 -0.0000
vn -0.0000 1.0000 -0.0000
vt 0.000000 0.000000
vt 1.000000 1.000000
vt 0.000000 1.000000
vt 1.000000 0.000000
s 1
usemtl Concrete_pattern_01B
f 371/355/51 374/356/51 373/357/51
f 371/355/51 372/358/51 374/356/51
f 373/355/52 376/356/52 375/357/52
f 373/355/52 374/358/52 376/356/52
f 375/355/53 378/356/53 377/357/53
f 375/355/53 376/358/53 378/356/53
f 377/355/54 372/356/54 371/357/54
f 377/355/54 378/358/54 372/356/54
f 372/355/55 376/356/55 374/357/55
f 372/355/55 378/358/55 376/356/55
f 377/355/56 373/356/56 375/357/56
f 377/355/56 371/358/56 373/356/56
g m_wall_3_1_Scene.002
v -2.450000 -2.450500 -0.145000
v -2.550000 -2.450500 -0.145000
v -2.450000 -2.450500 2.965000
v -2.550000 -2.450500 2.965000
v -2.450000 -7.449500 2.965000
v -2.550000 -7.449500 2.965000
v -2.450000 -7.449500 -0.145000
v -2.550000 -7.449500 -0.145000
vn -0.0000 1.0000 -0.0000
vn -0.0000 -0.0000 1.0000
vn -0.0000 -1.0000 -0.0000
vn -0.0000 -0.0000 -1.0000
vn -1.0000 -0.0000 -0.0000
vn 1.0000 -0.0000 -0.0000
vt 0.000000 0.000000
vt 1.000000 1.000000
vt 0.000000 1.000000
vt 1.000000 0.000000
s 1
usemtl Concrete_pattern_01E
f 379/359/57 382/360/57 381/361/57
f 379/359/57 380/362/57 382/360/57
f 381/359/58 384/360/58 383/361/58
f 381/359/58 382/362/58 384/360/58
f 383/359/59 386/360/59 385/361/59
f 383/359/59 384/362/59 386/360/59
f 385/359/60 380/360/60 379/361/60
f 385/359/60 386/362/60 380/360/60
f 380/359/61 384/360/61 382/361/61
f 380/359/61 386/362/61 384/360/61
f 385/359/62 381/360/62 383/361/62
f 385/359/62 379/362/62 381/360/62
g m_wall_3_4_Scene.002
v -7.449500 -2.450000 -0.144999
v -7.449500 -2.550000 -0.144999
v -7.449500 -2.450000 2.965000
v -7.449500 -2.550000 2.965000
v -2.450500 -2.450000 2.965000
v -2.450500 -2.550000 2.965000
v -2.450500 -2.450000 -0.145000
v -2.450500 -2.550000 -0.145000
vn -1.0000 -0.0000 -0.0000
vn -0.0000 -0.0000 1.0000
vn 1.0000 -0.0000 -0.0000
vn -0.0000 -0.0000 -1.0000
vn -0.0000 -1.0000 -0.0000
vn -0.0000 1.0000 -0.0000
vt 0.000000 0.000000
vt 1.000000 1.000000
vt 0.000000 1.000000
vt 1.000000 0.000000
s 1
usemtl Concrete_pattern_01E
f 387/363/63 390/364/63 389/365/63
f 387/363/63 388/366/63 390/364/63
f 389/363/64 392/364/64 391/365/64
f 389/363/64 390/366/64 392/364/64
f 391/363/65 394/364/65 393/365/65
f 391/363/65 392/366/65 394/364/65
f 393/363/66 388/364/66 387/365/66
f 393/363/66 394/366/66 388/364/66
f 388/363/67 392/364/67 390/365/67
f 388/363/67 394/366/67 392/364/67
f 393/363/68 389/364/68 391/365/68
f 393/363/68 387/366/68 389/364/68
g m_wall_2_1_Scene.002
v 7.449999 -2.450500 -0.145000
v 7.349999 -2.450500 -0.145000
v 7.449999 -2.450500 2.964999
v 7.349999 -2.450500 2.964999
v 7.450000 -7.449500 2.964999
v 7.350000 -7.449500 2.964999
v 7.450000 -7.449500 -0.145000
v 7.350000 -7.449500 -0.145000
vn -0.0000 1.0000 -0.0000
vn -0.0000 -0.0000 1.0000
vn -0.0000 -1.0000 -0.0000
vn -0.0000 -0.0000 -1.0000
vn -1.0000 -0.0000 -0.0000
vn 1.0000 -0.0000 -0.0000
vt 0.000000 0.000000
vt 1.000000 1.000000
vt 0.000000 1.000000
vt 1.000000 0.000000
s 1
usemtl Concrete_pattern_01B
f 395/367/69 398/368/69 397/369/69
f 395/367/69 396/370/69 398/368/69
f 397/367/70 400/368/70 399/369/70
f 397/367/70 398/370/70 400/368/70
f 399/367/71 402/368/71 401/369/71
f 399/367/71 400/370/71 402/368/71
f 401/367/72 396/368/72 395/369/72
f 401/367/72 402/370/72 396/368/72
f 396/367/73 400/368/73 398/369/73
f 396/367/73 402/370/73 400/368/73
f 401/367/74 397/368/74 399/369/74
f 401/367/74 395/370/74 397/368/74
g m_wall_3_3_Scene.002
v -7.450000 -7.449500 -0.144999
v -7.350000 -7.449500 -0.144999
v -7.450000 -7.449500 2.965000
v -7.350000 -7.449500 2.965000
v -7.449999 -2.450500 2.965000
v -7.349999 -2.450500 2.965000
v -7.449999 -2.450500 -0.144999
v -7.349999 -2.450500 -0.144999
vn -0.0000 -1.0000 -0.0000
vn -0.0000 -0.0000 1.0000
vn -0.0000 1.0000 -0.0000
vn -0.0000 -0.0000 -1.0000
vn 1.0000 -0.0000 -0.0000
vn -1.0000 -0.0000 -0.0000
vt 0.000000 0.000000
vt 1.000000 1.000000
vt 0.000000 1.000000
vt 1.000000 0.000000
s 1
usemtl Concrete_pattern_01E
f 403/371/75 406/372/75 405/373/75
f 403/371/75 404/374/75 406/372/75
f 405/371/76 408/372/76 407/373/76
f 405/371/76 406/374/76 408/372/76
f 407/371/77 410/372/77 409/373/77
f 407/371/77 408/374/77 410/372/77
f 409/371/78 404/372/78 403/373/78
f 409/371/78 410/374/78 404/372/78
f 404/371/79 408/372/79 406/373/79
f 404/371/79 410/374/79 408/372/79
f 409/371/80 405/372/80 407/373/80
f 409/371/80 403/374/80 405/372/80
g m_wall_4_3_Scene.002
v -7.450000 2.450500 -0.144999
v -7.350000 2.450500 -0.144999
v -7.450000 2.450500 2.965000
v -7.350000 2.450500 2.965000
v -7.449999 7.449500 2.965000
v -7.349999 7.449500 2.965000
v -7.449999 7.449500 -0.144999
v -7.349999 7.449500 -0.144999
vn -0.0000 -1.0000 -0.0000
vn -0.0000 -0.0000 1.0000
vn -0.0000 1.0000 -0.0000
vn -0.0000 -0.0000 -1.0000
vn 1.0000 -0.0000 -0.0000
vn -1.0000 -0.0000 -0.0000
vt 0.000000 0.000000
vt 1.000000 1.000000
vt 0.000000 1.000000
vt 1.000000 0.000000
s 1
usemtl Concrete_pattern_01D
f 411/375/81 414/376/81 413/377/81
f 411/375/81 412/378/81 414/376/81
f 413/375/82 416/376/82 415/377/82
f 413/375/82 414/378/82 416/376/82
f 415/375/83 418/376/83 417/377/83
f 415/375/83 416/378/83 418/376/83
f 417/375/84 412/376/84 411/377/84
f 417/375/84 418/378/84 412/376/84
f 412/375/85 416/376/85 414/377/85
f 412/375/85 418/378/85 416/376/85
f 417/375/86 413/376/86 415/377/86
f 417/375/86 411/378/86 413/376/86
g m_wall_3_2_Scene.002
v -2.450500 -7.450000 -0.145000
v -2.450500 -7.350000 -0.145000
v -2.450500 -7.450000 2.965000
v -2.450500 -7.350000 2.965000
v -7.449500 -7.449999 2.965000
v -7.449499 -7.349999 2.965000
v -7.449500 -7.449999 -0.144999
v -7.449500 -7.349999 -0.144999
vn 1.0000 -0.0000 -0.0000
vn -0.0000 -0.0000 1.0000
vn -1.0000 -0.0000 -0.0000
vn -0.0000 -0.0000 -1.0000
vn -0.0000 1.0000 -0.0000
vn -0.0000 -1.0000 -0.0000
vt 0.000000 0.000000
vt 1.000000 1.000000
vt 0.000000 1.000000
vt 1.000000 0.000000
s 1
usemtl Concrete_pattern_01E
f 419/379/87 422/380/87 421/381/87
f 419/379/87 420/382/87 422/380/87
f 421/379/88 424/380/88 423/381/88
f 421/379/88 422/382/88 424/380/88
f 423/379/89 426/380/89 425/381/89
f 423/379/89 424/382/89 426/380/89
f 425/379/90 420/380/90 419/381/90
f 425/379/90 426/382/90 420/380/90
f 420/379/91 424/380/91 422/381/91
f 420/379/91 426/382/91 424/380/91
f 425/379/92 421/380/92 423/381/92
f 425/379/92 419/382/92 421/380/92
g m_wall_2_2_Scene.002
v 7.449499 -7.450000 -0.145000
v 7.449500 -7.350000 -0.145000
v 7.449500 -7.450000 2.964999
v 7.449500 -7.350000 2.964999
v 2.450500 -7.449999 2.965000
v 2.450500 -7.349999 2.965000
v 2.450500 -7.449999 -0.145000
v 2.450500 -7.349999 -0.145000
vn 1.0000 -0.0000 -0.0000
vn -0.0000 -0.0000 1.0000
vn -1.0000 -0.0000 -0.0000
vn -0.0000 -0.0000 -1.0000
vn -0.0000 1.0000 -0.0000
vn -0.0000 -1.0000 -0.0000
vt 0.000000 0.000000
vt 1.000000 1.000000
vt 0.000000 1.000000
vt 1.000000 0.000000
s 1
usemtl Concrete_pattern_01B
f 427/383/93 430/384/93 429/385/93
f 427/383/93 428/386/93 430/384/93
f 429/383/94 432/384/94 431/385/94
f 429/383/94 430/386/94 432/384/94
f 431/383/95 434/384/95 433/385/95
f 431/383/95 432/386/95 434/384/95
f 433/383/96 428/384/96 427/385/96
f 433/383/96 434/386/96 428/384/96
f 428/383/97 432/384/97 430/385/97
f 428/383/97 434/386/97 432/384/97
f 433/383/98 429/384/98 431/385/98
f 433/383/98 427/386/98 429/384/98
g m_wall_4_4_Scene.002
v -7.449500 7.450000 -0.144999
v -7.449500 7.349999 -0.144999
v -7.449500 7.450000 2.965000
v -7.449500 7.349999 2.965000
v -2.450500 7.450000 2.965000
v -2.450500 7.349999 2.965000
v -2.450500 7.450000 -0.145000
v -2.450500 7.349999 -0.145000
vn -1.0000 -0.0000 -0.0000
vn -0.0000 -0.0000 1.0000
vn 1.0000 -0.0000 -0.0000
vn -0.0000 -0.0000 -1.0000
vn -0.0000 -1.0000 -0.0000
vn -0.0000 1.0000 -0.0000
vt 0.000000 0.000000
vt 1.000000 1.000000
vt 0.000000 1.000000
vt 1.000000 0.000000
s 1
usemtl Concrete_pattern_01D
f 435/387/99 438/388/99 437/389/99
f 435/387/99 436/390/99 438/388/99
f 437/387/100 440/388/100 439/389/100
f 437/387/100 438/390/100 440/388/100
f 439/387/101 442/388/101 441/389/101
f 439/387/101 440/390/101 442/388/101
f 441/387/102 436/388/102 435/389/102
f 441/387/102 442/390/102 436/388/102
f 436/387/103 440/388/103 438/389/103
f 436/387/103 442/390/103 440/388/103
f 441/387/104 437/388/104 439/389/104
f 441/387/104 435/390/104 437/388/104
g m_wall_1_4_Scene.002
v 2.450500 7.450000 -0.145000
v 2.450500 7.349999 -0.145000
v 2.450500 7.450000 2.965000
v 2.450500 7.349999 2.965000
v 7.449500 7.450000 2.964999
v 7.449500 7.349999 2.964999
v 7.449500 7.450000 -0.145000
v 7.449500 7.349999 -0.145000
vn -1.0000 -0.0000 -0.0000
vn -0.0000 -0.0000 1.0000
vn 1.0000 -0.0000 -0.0000
vn -0.0000 -0.0000 -1.0000
vn -0.0000 -1.0000 -0.0000
vn -0.0000 1.0000 -0.0000
vt 0.000000 0.000000
vt 1.000000 1.000000
vt 0.000000 1.000000
vt 1.000000 0.000000
s 1
usemtl Concrete_pattern_01C
f 443/391/105 446/392/105 445/393/105
f 443/391/105 444/394/105 446/392/105
f 445/391/106 448/392/106 447/393/106
f 445/391/106 446/394/106 448/392/106
f 447/391/107 450/392/107 449/393/107
f 447/391/107 448/394/107 450/392/107
f 449/391/108 444/392/108 443/393/108
f 449/391/108 450/394/108 444/392/108
f 444/391/109 448/392/109 446/393/109
f 444/391/109 450/394/109 448/392/109
f 449/391/110 445/392/110 447/393/110
f 449/391/110 443/394/110 445/392/110
g m_wall_1_3_Scene.002
v 2.450000 2.450500 -0.145000
v 2.550000 2.450500 -0.145000
v 2.450000 2.450500 2.965000
v 2.550000 2.450500 2.965000
v 2.450000 7.449500 2.965000
v 2.550000 7.449500 2.965000
v 2.450000 7.449500 -0.145000
v 2.550000 7.449500 -0.145000
vn -0.0000 -1.0000 -0.0000
vn -0.0000 -0.0000 1.0000
vn -0.0000 1.0000 -0.0000
vn -0.0000 -0.0000 -1.0000
vn 1.0000 -0.0000 -0.0000
vn -1.0000 -0.0000 -0.0000
vt 0.000000 0.000000
vt 1.000000 1.000000
vt 0.000000 1.000000
vt 1.000000 0.000000
s 1
usemtl Concrete_pattern_01C
f 451/395/111 454/396/111 453/397/111
f 451/395/111 452/398/111 454/396/111
f 453/395/112 456/396/112 455/397/112
f 453/395/112 454/398/112 456/396/112
f 455/395/113 458/396/113 457/397/113
f 455/395/113 456/398/113 458/396/113
f 457/395/114 452/396/114 451/397/114
f 457/395/114 458/398/114 452/396/114
f 452/395/115 456/396/115 454/397/115
f 452/395/115 458/398/115 456/396/115
f 457/395/116 453/396/116 455/397/116
f 457/395/116 451/398/116 453/396/116
g m_wall_2_3_Scene.002
v 2.450000 -7.449500 -0.145000
v 2.550000 -7.449500 -0.145000
v 2.450000 -7.449500 2.965000
v 2.550000 -7.449500 2.965000
v 2.450000 -2.450500 2.965000
v 2.550000 -2.450500 2.965000
v 2.450000 -2.450500 -0.145000
v 2.550000 -2.450500 -0.145000
vn -0.0000 -1.0000 -0.0000
vn -0.0000 -0.0000 1.0000
vn -0.0000 1.0000 -0.0000
vn -0.0000 -0.0000 -1.0000
vn 1.0000 -0.0000 -0.0000
vn -1.0000 -0.0000 -0.0000
vt 0.000000 0.000000
vt 1.000000 1.000000
vt 0.000000 1.000000
vt 1.000000 0.000000
s 1
usemtl Concrete_pattern_01B
f 459/399/117 462/400/117 461/401/117
f 459/399/117 460/402/117 462/400/117
f 461/399/118 464/400/118 463/401/118
f 461/399/118 462/402/118 464/400/118
f 463/399/119 466/400/119 465/401/119
f 463/399/119 464/402/119 466/400/119
f 465/399/120 460/400/120 459/401/120
f 465/399/120 466/402/120 460/400/120
f 460/399/121 464/400/121 462/401/121
f 460/399/121 466/402/121 464/400/121
f 465/399/122 461/400/122 463/401/122
f 465/399/122 459/402/122 461/400/122
